<?xml version="1.0" encoding="UTF-8" standalone="no"?>
<!-- Created with Inkscape (http://www.inkscape.org/) -->

<svg
   version="1.1"
   id="svg2"
   width="1969"
   height="1969"
   viewBox="0 0 1969 1969"
   sodipodi:docname="funcap.svg"
   xml:space="preserve"
   inkscape:version="1.2 (dc2aedaf03, 2022-05-15)"
   inkscape:export-filename="funcap.png"
   inkscape:export-xdpi="49.92585"
   inkscape:export-ydpi="49.92585"
   xmlns:inkscape="http://www.inkscape.org/namespaces/inkscape"
   xmlns:sodipodi="http://sodipodi.sourceforge.net/DTD/sodipodi-0.dtd"
   xmlns="http://www.w3.org/2000/svg"
   xmlns:svg="http://www.w3.org/2000/svg"><defs
     id="defs6" /><sodipodi:namedview
     id="namedview4"
     pagecolor="#505050"
     bordercolor="#eeeeee"
     borderopacity="1"
     inkscape:showpageshadow="0"
     inkscape:pageopacity="0"
     inkscape:pagecheckerboard="0"
     inkscape:deskcolor="#505050"
     showgrid="false"
     inkscape:zoom="0.34535241"
     inkscape:cx="573.3274"
     inkscape:cy="1003.323"
     inkscape:window-width="1920"
     inkscape:window-height="1056"
     inkscape:window-x="0"
     inkscape:window-y="0"
     inkscape:window-maximized="1"
     inkscape:current-layer="svg2" /><g
     id="g238"
     transform="translate(5.3357546,326.93188)"><path
       d="m 1170.8493,1314.0453 c -19.8774,-1.8977 -31.8018,-6.3113 -40.8118,-15.1059 -10.0798,-9.8386 -14.3848,-21.6914 -14.4344,-39.7413 -0.087,-31.7493 15.8201,-51.5861 46.5004,-57.9867 12.6361,-2.6362 46.6634,-1.1916 49.6981,2.1099 1.0939,1.19 2.0457,22.3768 1.0054,22.3768 -0.4548,0 -3.9131,-0.6492 -7.6852,-1.4427 -15.2053,-3.1985 -28.9731,-2.3015 -38.3869,2.5011 -5.7669,2.942 -12.6397,10.679 -14.9381,16.8165 -2.6655,7.1175 -2.8385,21.8184 -0.332,28.2103 3.3141,8.4512 9.2244,13.5457 19.0384,16.4104 6.5951,1.9251 23.4314,1.9625 33.3337,0.074 4.1181,-0.7853 7.6322,-1.2833 7.8089,-1.1065 0.1768,0.1768 -0.3801,4.0196 -1.2375,8.5396 -0.8575,4.52 -1.5659,9.4059 -1.5743,10.8577 -0.01,1.4517 -0.3535,3.1713 -0.7668,3.8212 -1.1991,1.8855 -28.1059,4.5354 -37.2179,3.6655 z m -784.89469,-1.372 c -10.97927,-2.2992 -21.42894,-7.9416 -25.42555,-13.7288 -5.71696,-8.2784 -6.00643,-9.9836 -5.30417,-31.2464 0.35422,-10.725 0.93493,-29.9625 1.29048,-42.75 l 0.64644,-23.25 h 16.63035 16.63035 l -0.65861,7.75 c -0.36224,4.2625 -1.23981,21.2519 -1.95016,37.7542 -1.21752,28.2846 -1.18913,30.22 0.49531,33.7697 2.79062,5.8808 6.79821,8.1498 15.13854,8.5709 10.89051,0.55 17.27201,-3.3762 19.96928,-12.2861 1.38144,-4.5633 4.33865,-51.3733 4.41015,-69.8087 l 0.0223,-5.75 h 16.63691 16.63691 l -0.61008,6.75 c -0.33554,3.7125 -1.2806,19.125 -2.10013,34.25 -2.40355,44.3593 -3.24404,49.7303 -8.84565,56.526 -4.73205,5.7408 -14.7883,11.0085 -24.7555,12.9675 -5.69793,1.1199 -34.12675,1.4723 -38.85717,0.4817 z M 4.2320075,1306.4481 c 1.29156,-11.0591 3.56895,-53.3611 4.22617,-78.5 l 0.68627,-26.25 h 40.3524295 40.35244 v 10.4182 c 0,5.73 -0.24504,11.0568 -0.54453,11.8372 -0.45552,1.1871 -4.25903,1.3425 -23.26878,0.9508 -18.65433,-0.3845 -22.93185,-0.2182 -23.88333,0.9283 -1.5045,1.8128 -1.95528,16.6136 -0.54883,18.02 0.70494,0.705 7.5543,0.9419 20.27659,0.7015 l 19.21205,-0.363 -0.61447,6.5035 c -0.33797,3.5769 -0.61768,8.866 -0.62159,11.7535 l -0.007,5.25 h -19.89301 c -18.02008,0 -19.95702,0.1648 -20.57284,1.75 -0.3739,0.9625 -0.94145,10.8625 -1.2612,22 l -0.58138,20.25 H 20.579987 3.6189775 Z m 725.0217125,2.5 c 1.25467,-6.1251 5.56233,-83.6248 5.5861,-100.5 l 0.01,-6.75 h 20.97835 20.97835 l 3.40318,7.25 c 4.82673,10.2827 10.96335,23.3169 15.77213,33.5 2.2726,4.8125 5.45101,11.675 7.06313,15.25 7.5414,16.7236 10.26017,22 11.336,22 1.3765,0 2.11872,-12.2468 3.10601,-51.25 l 0.67713,-26.75 h 14.34286 c 16.55476,0 14.92311,-1.6176 13.40465,13.2894 -0.51602,5.0658 -1.19282,15.5106 -1.50402,23.2106 -0.86661,21.4427 -1.80677,39.8358 -2.12128,41.5 -0.15591,0.825 -0.3179,8.3625 -0.35998,16.75 l -0.077,15.25 h -21.37687 -21.37685 l -2.23548,-5.25 c -1.22952,-2.8875 -3.06145,-7.0863 -4.07096,-9.3306 -1.0095,-2.2443 -2.71743,-6.2943 -3.79539,-9 -1.07796,-2.7057 -4.42742,-10.0944 -7.44326,-16.4194 -6.49504,-13.6218 -12.0489,-25.5002 -15.31257,-32.75 -1.29987,-2.8875 -2.78327,-5.25 -3.29643,-5.25 -0.51315,0 -1.20667,2.8125 -1.54114,6.25 -0.69108,7.1025 -2.51742,53.5225 -2.53768,64.5 l -0.0134,7.25 h -15.07946 -15.07945 z m 743.59558,2.1627 c 0,-0.349 3.6708,-7.8972 8.1573,-16.7736 29.5991,-58.5609 42.614,-84.68 44.0437,-88.3891 l 1.6381,-4.25 h 21.501 21.501 l 0.653,3.25 c 0.6982,3.4749 13.3029,42.7915 24.7658,77.25 3.8423,11.55 7.5616,22.9125 8.2651,25.25 l 1.2793,4.25 h -17.1878 -17.1878 l -1.8215,-8.25 c -1.0019,-4.5375 -2.7858,-12.3 -3.9644,-17.25 l -2.1428,-9 -20.6935,-0.2701 -20.6936,-0.2701 -1.4692,3.2701 c -0.808,1.7985 -2.6837,6.1951 -4.1681,9.7701 -1.4844,3.575 -3.1002,7.4 -3.5907,8.5 -0.4905,1.1 -1.7202,4.475 -2.7328,7.5 l -1.841,5.5 -17.1556,0.2736 c -9.4355,0.1505 -17.1555,-0.012 -17.1555,-0.3609 z m 82.9877,-59.1627 c -0.04,-2.4437 -8.9554,-35.75 -9.5696,-35.75 -0.8323,0 -3.3288,4.4204 -5.0831,9 -0.632,1.65 -3.2118,7.95 -5.7329,14 -2.5211,6.05 -4.5879,11.5625 -4.5929,12.25 -0.01,0.9338 3.1526,1.25 12.4908,1.25 6.875,0 12.4945,-0.3375 12.4877,-0.75 z m 310.0123,55.356 c 0,-2.4168 0.4316,-8.8293 0.9592,-14.25 1.1505,-11.8209 2.714,-42.1195 3.6477,-70.6858 l 0.6808,-20.8299 33.6061,0.3714 c 31.5486,0.3487 33.8817,0.4994 38.1062,2.4608 6.1804,2.8695 8.4548,5.0914 11.6753,11.4058 2.1143,4.1455 2.8543,7.2084 3.1436,13.0123 0.9329,18.7149 -8.3555,33.7117 -24.0529,38.8352 -5.7469,1.8757 -18.6052,1.924 -19.7769,0.074 -0.8116,-1.2814 -3.1024,-7.8967 -5.3974,-15.5866 -0.553,-1.8528 0.023,-2.2413 5.1428,-3.4682 3.6723,-0.88 6.9662,-2.4823 9.0726,-4.4134 2.9017,-2.6601 3.3118,-3.659 3.345,-8.1478 0.071,-9.5421 -4.9323,-14.384 -14.8621,-14.384 -8.0731,0 -8.3611,0.523 -9.32,16.9285 -0.4601,7.8726 -1.1039,23.3719 -1.4305,34.4427 -0.3266,11.0708 -0.8486,24.2913 -1.16,29.3788 l -0.5661,9.25 h -16.4067 -16.4067 v -4.394 z"
       style="display:inline;fill:#db251a;fill-opacity:1"
       id="path515" /><path
       style="display:inline;fill:#000000"
       d="m 845.11822,1151.7484 c -0.1317,-3.0654 4.00894,-49.2752 6.42903,-71.7484 15.38224,-142.84145 34.272,-264.70309 63.86408,-412 4.58556,-22.825 8.17466,-41.68177 7.97577,-41.90392 -0.19889,-0.22216 -9.47985,3.09839 -20.62436,7.37899 C 780.65132,680.37807 636.02026,730.74605 548,757.02171 c -77.11069,23.01896 -204.2562,49.37661 -291.5,60.42882 -53.39917,6.76471 -82.952,8.9132 -123.5,8.97845 -34.34672,0.0553 -44.97717,-0.59841 -66,-4.05839 C 33.43464,816.84632 12.02549,805.2188 4.28386,788.30885 -5.36581,767.2312 4.34816,730.90757 28.43488,698 40.26572,681.8366 64.54057,656.73153 84,640.53451 c 23.52568,-19.58154 58.59692,-44.10474 87,-60.83384 7.975,-4.69719 15.78455,-9.36391 17.35456,-10.3705 2.83992,-1.82079 2.85531,-1.88684 3,-12.88295 0.13978,-10.62266 0.29147,-11.34821 3.898,-18.64466 8.87636,-17.95791 28.48777,-28.30878 47.47384,-25.0566 36.72391,6.29054 50.90349,51.27201 24.19368,76.74886 -8.38156,7.99465 -16.64982,11.62683 -27.9315,12.27009 -10.18269,0.58059 -15.80858,-0.54804 -24.37558,-4.89004 -3.23784,-1.64104 -6.41039,-2.78286 -7.0501,-2.53738 -1.51041,0.5796 -24.76297,18.17474 -35.0629,26.53199 -20.78148,16.86186 -46.25425,40.8873 -61.10228,57.63052 -34.29411,38.67141 -43.44653,69.61718 -25.40133,85.8859 22.27701,20.08393 83.86173,21.94848 182.50361,5.52551 120.1845,-20.00962 313.97221,-72.39717 512,-138.41139 50.00933,-16.67102 69.04046,-23.25551 135,-46.70798 9.35,-3.32448 17.50146,-6.5502 18.11435,-7.16827 0.61289,-0.61807 2.78236,-8.77377 4.82103,-18.12377 20.14401,-92.38672 63.62632,-260.6763 81.77652,-316.5 28.632,-88.06177 65.307,-173.4441 91.277,-212.5 15.1045,-22.71556 26.7402,-32.12612 35.8499,-28.99435 9.7801,3.36226 16.8036,18.71234 21.3927,46.75499 1.3267,8.10684 1.6799,17.21631 1.6959,43.73936 0.021,34.80255 -1.2447,54.84912 -5.5565,88 -3.6775,28.27441 -3.8328,25.70734 1.9137,31.62274 12.1999,12.55849 12.2722,31.22524 0.1678,43.32964 -20.0009,20.00084 -53.7634,4.44227 -51.7251,-23.83615 1.0588,-14.68915 11.4055,-25.78883 25.9897,-27.88108 l 5.283,-0.7579 0.6661,-6.48862 c 1.8621,-18.14075 3.058,-54.60906 2.5082,-76.48863 -0.8644,-34.39682 -3.9917,-52.51323 -10.2015,-59.09754 -4.5566,-4.83137 -8.179,-4.63621 -14.0286,0.75577 -24.4431,22.53079 -66.2505,134.80486 -119.2854,320.34177 -18.09942,63.31861 -50.01446,185.97767 -48.72553,187.26661 0.63592,0.63591 3.31723,-0.33347 52.06673,-18.82382 52.705,-19.99063 145.277,-56.63685 170.5,-67.49535 3.025,-1.30226 15.175,-6.37935 27,-11.28242 57.0423,-23.65179 168.0953,-72.40311 214.5,-94.16371 4.95,-2.32121 17.55,-8.17303 28,-13.00404 83.1894,-38.45826 224.5013,-108.73198 297.5,-147.94524 7.975,-4.284 18.55,-9.94315 23.5,-12.5759 9.7495,-5.18543 30.5495,-16.436 36.9967,-20.01119 2.2018,-1.22098 8.0533,-4.4666 13.0033,-7.21249 4.95,-2.74589 11.25,-6.23357 14,-7.7504 2.75,-1.51684 9.5,-5.24107 15,-8.27608 22.0801,-12.18419 56.0611,-31.56893 80.9046,-46.1526 10.3976,-6.10359 19.0861,-10.91602 19.3078,-10.69429 0.4433,0.44328 -46.0644,31.75627 -73.7124,49.62954 -33.5428,21.68405 -68.6716,43.72861 -93.5,58.67469 -13.75,8.27714 -27.25,16.41005 -30,18.07314 -21.6527,13.09465 -64.0749,37.45362 -100.5,57.70743 -10.725,5.96353 -21.6443,12.12378 -24.265,13.68945 -2.6208,1.56567 -4.9822,2.84667 -5.2476,2.84667 -0.2655,0 -4.6462,2.30547 -9.735,5.12327 -18.0384,9.98829 -24.7649,13.59217 -69.2524,37.10359 -69.8735,36.92782 -187.8745,94.79808 -257.5,126.28364 -5.775,2.61153 -16.125,7.34126 -23,10.51051 -14.3524,6.6162 -17.9172,8.22368 -31,13.97899 -10.8173,4.75866 -15.0375,6.63194 -27,11.98485 -16.9186,7.57064 -65.3769,28.57137 -81.5,35.3203 -3.3,1.38134 -10.95,4.61287 -17,7.18118 -6.05,2.5683 -15.95,6.70458 -22,9.19171 -6.05,2.48714 -12.35,5.12856 -14,5.86982 -6.2382,2.80252 -34.5453,14.30487 -78.91319,32.06574 -25.25225,10.10869 -46.02805,18.4943 -46.16843,18.63469 -0.14038,0.14038 -3.87591,16.22944 -8.30117,35.75347 -34.74633,153.29896 -68.09714,333.48398 -87.08548,470.49824 -3.49918,25.2491 -4.73671,32.3638 -4.91351,28.2484 z M 1152.5411,202.06653 c -0.8092,-1.30936 -3.5411,-1.41725 -3.5411,-0.13985 0,0.50967 0.7875,1.10184 1.75,1.31593 2.1823,0.48541 2.6345,0.1885 1.7911,-1.17608 z"
       id="path357"
       sodipodi:nodetypes="ssssssssssssssssssssssssssssssssssssssscssssssssssssssssssssssssssssssssssssssssssss" /><path
       d="m 1082.4024,473.34144 c -6.1099,-0.80649 -17.1931,-4.44273 -21.1447,-6.93727 -2.0986,-1.32475 -4.0444,-2.40863 -4.324,-2.40863 -0.9661,0 -4.9668,-3.52349 -11.2234,-9.88473 -13.4989,-13.72473 -19.3625,-35.53225 -14.7803,-54.97013 1.6514,-7.00523 7.2944,-19.46428 10.5224,-23.23224 7.9801,-9.315 15.389,-15.02892 24.6151,-18.98367 27.7427,-11.8919 60.0826,-1.55285 75.9238,24.27278 6.1754,10.0676 8.5512,18.71771 8.5962,31.29799 0.033,9.34015 -0.3651,12.20716 -2.6406,19 -6.5708,19.61459 -20.611,33.44155 -40.0445,39.43622 -6.9937,2.15736 -18.8929,3.2818 -25.5,2.40968 z"
       style="display:inline;fill:#db251a;fill-opacity:1"
       id="path463" /></g></svg>
