<?xml version="1.0" encoding="UTF-8" standalone="no"?>
<!-- Created with Inkscape (http://www.inkscape.org/) -->

<svg
   version="1.1"
   id="svg3124"
   width="166.99741"
   height="66.185387"
   viewBox="0 0 166.99741 66.185387"
   sodipodi:docname="Loading.svg"
   xml:space="preserve"
   inkscape:version="1.2 (dc2aedaf03, 2022-05-15)"
   xmlns:inkscape="http://www.inkscape.org/namespaces/inkscape"
   xmlns:sodipodi="http://sodipodi.sourceforge.net/DTD/sodipodi-0.dtd"
   xmlns="http://www.w3.org/2000/svg"
   xmlns:svg="http://www.w3.org/2000/svg"><defs
     id="defs3128"><rect
       x="58.375"
       y="36.125"
       width="144.80267"
       height="45.41206"
       id="rect290" /><filter
       style="color-interpolation-filters:sRGB"
       inkscape:label="Brilliance"
       id="filter2802"
       x="0"
       y="0"
       width="1"
       height="1"><feColorMatrix
         values="1 -0 -0 0 -10 -0 1 -0 0 -10 -0 -0 1 0 -10 0 0 0 1 0 "
         id="feColorMatrix2800" /></filter></defs><sodipodi:namedview
     id="namedview3126"
     pagecolor="#505050"
     bordercolor="#eeeeee"
     borderopacity="1"
     inkscape:showpageshadow="0"
     inkscape:pageopacity="0"
     inkscape:pagecheckerboard="0"
     inkscape:deskcolor="#505050"
     showgrid="false"
     inkscape:zoom="4"
     inkscape:cx="71.25"
     inkscape:cy="45.375"
     inkscape:window-width="1920"
     inkscape:window-height="1056"
     inkscape:window-x="0"
     inkscape:window-y="0"
     inkscape:window-maximized="1"
     inkscape:current-layer="svg3124" /><rect
     style="display:inline;opacity:1;fill:#813ed6;fill-opacity:1;stroke:none;stroke-width:0.623622"
     id="rect3384"
     width="166.99741"
     height="66.185387"
     x="0"
     y="0"
     ry="5.0291009" /><path
     d="m 28.524864,49.507519 v -2.186775 h 56.418782 56.418784 v 2.186775 2.18678 H 84.943646 28.524864 Z m 112.137806,0 V 48.020512 H 126.75479 112.8469 v 1.487007 1.48701 h 13.90789 13.90788 z"
     style="fill:#ffffff;fill-opacity:1;stroke-width:0.174943"
     id="path3224" /><path
     style="fill:#ffffff;fill-opacity:1;stroke-width:0.174943"
     d="m 49.363875,33.999525 c -7.382119,-1.471736 -10.16587,-10.766129 -4.825682,-16.111959 1.871963,-1.873927 4.040006,-2.778869 6.657571,-2.778869 2.731342,0 4.901802,0.873183 6.740242,2.711626 1.879263,1.879265 2.770207,4.117059 2.751197,6.91018 -0.01921,2.819521 -0.973289,4.992513 -3.045886,6.937205 -2.129172,1.997786 -5.371479,2.911165 -8.277442,2.331817 z m 4.177941,-3.153346 c 1.321411,-0.494403 2.47613,-1.429752 3.257449,-2.63861 2.169457,-3.356563 0.865197,-7.874322 -2.783829,-9.642878 -1.030364,-0.499371 -1.319858,-0.559249 -2.727202,-0.564065 -1.411921,-0.0049 -1.695506,0.05194 -2.746706,0.549948 -4.241546,2.009386 -5.241181,7.248936 -2.032725,10.654449 1.87237,1.987381 4.48081,2.59606 7.033013,1.641156 z m 74.108594,2.933053 c -2.40802,-0.823975 -4.17392,-2.312405 -5.31119,-4.476604 -2.89074,-5.501073 -0.0546,-12.41169 5.72552,-13.95074 1.15301,-0.307017 3.61645,-0.307017 4.76947,0 2.4404,0.649801 4.64235,2.484196 5.82982,4.856658 0.38912,0.777435 0.70749,1.522486 0.70749,1.655674 0,0.188464 -0.33942,0.240207 -1.53075,0.233373 l -1.53074,-0.0088 -0.49758,-1.049839 c -1.27376,-2.687495 -4.98312,-3.876625 -7.91116,-2.536124 -1.33746,0.612306 -2.60055,1.862723 -3.27089,3.238054 -0.51818,1.063148 -0.56184,1.288641 -0.56184,2.90213 0,1.613493 0.0435,1.838986 0.56184,2.902134 0.67779,1.390661 1.93106,2.621822 3.33175,3.27302 0.83569,0.388527 1.24505,0.465068 2.48734,0.465068 1.23952,0 1.65223,-0.07682 2.47982,-0.461629 1.09168,-0.507591 2.33108,-1.562457 2.82206,-2.401845 l 0.31602,-0.540319 h -3.42124 -3.42127 V 26.479905 25.08037 h 5.09925 5.09925 l -0.11011,1.443271 c -0.0881,1.154723 -0.23179,1.690321 -0.71913,2.678971 -1.08564,2.202385 -3.23179,3.975478 -5.6836,4.69564 -1.42538,0.418679 -3.8491,0.36383 -5.26023,-0.119044 z m -97.967511,-9.1362 v -9.359394 h 1.399535 1.399536 v 7.959859 7.959859 h 4.373556 4.373542 v 1.399537 1.399534 h -5.773076 -5.773093 z m 31.664509,9.250114 c 0,-0.06011 1.666622,-4.311196 3.703596,-9.446866 l 3.703612,-9.337583 1.06355,0.0044 1.06358,0.0044 3.67377,9.291623 c 2.02059,5.110392 3.70002,9.359481 3.7321,9.442422 0.0322,0.08294 -0.62174,0.150792 -1.45291,0.150792 h -1.51121 l -0.39806,-0.918446 c -0.21892,-0.505145 -0.73494,-1.725364 -1.14669,-2.711598 l -0.74866,-1.793157 -3.26096,0.0022 -3.26093,0.0022 -0.50976,1.266172 c -0.28037,0.696395 -0.780277,1.915646 -1.110889,2.709445 l -0.601134,1.443273 H 62.8169 c -0.808214,0 -1.469492,-0.04917 -1.469492,-0.109281 z m 10.422588,-8.244198 c -0.0535,-0.16838 -0.51262,-1.548166 -1.01995,-3.066186 l -0.92242,-2.76004 -1.04742,2.916655 c -0.57608,1.60416 -1.07368,2.983945 -1.10574,3.06619 -0.032,0.08225 0.89824,0.149537 2.06736,0.149537 1.94498,0 2.11738,-0.02602 2.02817,-0.30615 z m 7.42149,-1.004137 v -9.388504 l 4.24233,0.06056 c 4.08499,0.0583 4.29025,0.07793 5.53358,0.528918 3.97046,1.440213 6.1806,4.482898 6.19022,8.522099 0.0103,4.230935 -2.24892,7.617874 -6.08192,9.1186 -0.98219,0.384551 -1.33358,0.415333 -5.46692,0.478899 l -4.41729,0.06794 z m 8.78425,6.32003 c 2.72611,-0.820443 4.47641,-3.594485 4.30101,-6.816648 -0.0508,-0.932125 -0.20601,-1.716662 -0.4462,-2.254763 -0.51208,-1.147163 -1.82628,-2.49092 -2.99515,-3.062502 -0.92898,-0.454277 -1.14404,-0.484756 -3.8271,-0.542352 l -2.8428,-0.06104 v 6.487904 6.487905 h 2.50885 c 1.61422,0 2.79146,-0.08505 3.30139,-0.238515 z m 7.45779,2.119141 c -0.033,-0.505146 -0.0348,-1.134937 -0.004,-1.399536 l 0.0554,-0.48109 h 1.65033 1.65033 v -6.472853 -6.472852 h -1.66194 -1.66195 v -1.487007 -1.487006 h 4.810914 4.81089 v 1.487006 1.487007 h -1.66195 -1.66194 v 6.472852 6.472853 h 1.66194 1.66195 v 1.399537 1.399534 h -4.79472 -4.794704 l -0.0599,-0.918445 z m 10.699004,-8.448943 v -9.367386 l 1.162,0.05171 1.16199,0.05173 4.43615,6.454535 4.43615,6.454532 v -6.498267 -6.49827 h 1.39954 1.39954 v 9.359394 9.359395 h -1.10481 -1.10482 l -4.44959,-6.334985 -4.4496,-6.334984 -0.046,6.334984 -0.046,6.334985 h -1.39733 -1.39738 z"
     id="path3167"
     sodipodi:nodetypes="ssssssssssccsscsssssscsssscsssscccccccssscccccccccccccccsscccccscsscccsscssssscscsssccsscssccscssscccssscccccccccccccccccccccccccccccccccccccccccccccccc" /></svg>
