<svg width="52" height="59" viewBox="0 0 52 59" fill="none" xmlns="http://www.w3.org/2000/svg">
<path d="M16.5968 58.375V48.1885H10.902C9.61871 48.1885 8.4958 47.7073 7.5333 46.7448C6.5708 45.7823 6.08954 44.6594 6.08954 43.376V34.4729H2.88121C1.81177 34.4729 1.00968 33.9783 0.474962 32.9891C-0.0597603 31.9998 -0.0330239 30.9438 0.555171 29.8208L6.08954 19.875C7.47982 14.0465 10.2203 9.38108 14.3109 5.87864C18.4015 2.37621 23.2007 0.625 28.7083 0.625C34.8576 0.625 40.138 2.83073 44.5494 7.24219C48.9609 11.6536 51.1666 16.934 51.1666 23.0833C51.1666 27.6285 49.91 31.6389 47.3968 35.1146C44.8836 38.5903 41.4614 41.3708 37.1302 43.4562V58.375H16.5968ZM21.4093 53.5625H32.3177V40.3281L34.5635 39.2854C38.1461 37.6278 41.0069 35.3686 43.1458 32.5078C45.2847 29.647 46.3541 26.5056 46.3541 23.0833C46.3541 18.2174 44.6297 14.0599 41.1807 10.6109C37.7317 7.16198 33.5743 5.4375 28.7083 5.4375C23.9493 5.4375 19.8987 7.0283 16.5567 10.2099C13.2147 13.3915 11.41 16.934 11.1427 20.8375L6.24996 29.6604H10.902V43.376H21.4093V53.5625ZM26.2218 34.7937H31.0343L31.275 31.2646C32.0236 31.1042 32.6652 30.8502 33.2 30.5026C33.7347 30.155 34.1892 29.7941 34.5635 29.4198L37.9323 30.5427L40.1781 26.6927L37.7718 24.7677C38.0392 24.0191 38.1729 23.2437 38.1729 22.4417C38.1729 21.6396 38.0392 20.8642 37.7718 20.1156L40.1781 18.1906L37.9323 14.3406L34.5635 15.4635C34.1892 15.0892 33.7213 14.7417 33.1599 14.4208C32.5984 14.1 31.9701 13.8326 31.275 13.6188L31.0343 10.0896H26.2218L25.9812 13.6188C25.2861 13.8326 24.6578 14.1 24.0963 14.4208C23.5349 14.7417 23.067 15.0892 22.6927 15.4635L19.3239 14.3406L17.0781 18.1906L19.4843 20.1156C19.217 20.8642 19.0833 21.6396 19.0833 22.4417C19.0833 23.2437 19.217 24.0191 19.4843 24.7677L17.0781 26.6927L19.3239 30.5427L22.6927 29.4198C23.067 29.7941 23.5215 30.155 24.0562 30.5026C24.5909 30.8502 25.2326 31.1042 25.9812 31.2646L26.2218 34.7937ZM28.6281 28.0562C27.0774 28.0562 25.754 27.5082 24.6578 26.412C23.5616 25.3158 23.0135 23.9924 23.0135 22.4417C23.0135 20.891 23.5616 19.5675 24.6578 18.4714C25.754 17.3752 27.0774 16.8271 28.6281 16.8271C30.1788 16.8271 31.5022 17.3752 32.5984 18.4714C33.6946 19.5675 34.2427 20.891 34.2427 22.4417C34.2427 23.9924 33.6946 25.3158 32.5984 26.412C31.5022 27.5082 30.1788 28.0562 28.6281 28.0562Z" fill="white"/>
</svg>
